<?xml version="1.0" encoding="UTF-8" standalone="no"?>
<!-- Created with Inkscape (http://www.inkscape.org/) -->
<svg
   xmlns:dc="http://purl.org/dc/elements/1.1/"
   xmlns:cc="http://web.resource.org/cc/"
   xmlns:rdf="http://www.w3.org/1999/02/22-rdf-syntax-ns#"
   xmlns:svg="http://www.w3.org/2000/svg"
   xmlns="http://www.w3.org/2000/svg"
   xmlns:sodipodi="http://inkscape.sourceforge.net/DTD/sodipodi-0.dtd"
   xmlns:inkscape="http://www.inkscape.org/namespaces/inkscape"
   sodipodi:docname="tic_tac_toe_complete.svg"
   sodipodi:docbase="/files/wikimedia_commons/svg"
   inkscape:version="0.41"
   sodipodi:version="0.32"
   id="svg2"
   height="25.000000cm"
   width="25.000000cm">
  <defs
     id="defs3" />
  <sodipodi:namedview
     inkscape:window-y="25"
     inkscape:window-x="0"
     inkscape:window-height="696"
     inkscape:window-width="1024"
     inkscape:current-layer="layer1"
     inkscape:document-units="cm"
     inkscape:cy="459.91757"
     inkscape:cx="304.49644"
     inkscape:zoom="0.49497475"
     inkscape:pageshadow="2"
     inkscape:pageopacity="0.0"
     borderopacity="1.0"
     bordercolor="#666666"
     pagecolor="#ffffff"
     id="base" />
  <metadata
     id="metadata4">
    <rdf:RDF
       id="RDF5">
      <cc:Work
         id="Work6"
         rdf:about="">
        <dc:format
           id="format7">image/svg+xml</dc:format>
        <dc:type
           rdf:resource="http://purl.org/dc/dcmitype/StillImage"
           id="type9" />
      </cc:Work>
    </rdf:RDF>
  </metadata>
  <g
     id="layer1"
     inkscape:groupmode="layer"
     inkscape:label="Layer 1">
    <path
       id="path1291"
       d="M 2.8834445,280.11250 L 885.68799,274.39821"
       style="fill:none;fill-opacity:0.75000000;fill-rule:evenodd;stroke:#000000;stroke-width:8.1758661;stroke-linecap:butt;stroke-linejoin:miter;stroke-miterlimit:4.0000000;stroke-opacity:1.0000000" />
    <path
       id="path1293"
       d="M 2.8702513,557.25535 L 885.70118,560.11250"
       style="fill:none;fill-opacity:0.75000000;fill-rule:evenodd;stroke:#000000;stroke-width:8.1627045;stroke-linecap:butt;stroke-linejoin:miter;stroke-miterlimit:4.0000000;stroke-opacity:1.0000000" />
    <path
       id="path1300"
       d="M 282.85714,2.9827479 L 288.57143,885.81367"
       style="fill:none;fill-opacity:0.75000000;fill-rule:evenodd;stroke:#000000;stroke-width:8.1627045;stroke-linecap:butt;stroke-linejoin:miter;stroke-miterlimit:4.0000000;stroke-opacity:1.0000000" />
    <path
       id="path1302"
       d="M 614.28571,0.13871345 L 622.85714,885.80056"
       style="fill:none;fill-opacity:0.75000000;fill-rule:evenodd;stroke:#000000;stroke-width:8.1757812;stroke-linecap:butt;stroke-linejoin:miter;stroke-miterlimit:4.0000000;stroke-opacity:1.0000000" />
    <g
       id="g7443">
      <path
         d="M 42.996287,261.35694 C 88.260346,205.81778 144.84793,160.09069 195.73346,109.59987 C 206.41454,99.040620 217.19976,88.588390 228.01417,78.166155 L 260.61781,65.252130 C 249.39222,75.898249 238.08344,86.455872 226.93445,97.182652 C 176.74321,146.23162 122.03792,191.74421 77.687240,246.07243 L 42.996287,261.35694 z "
         id="path4373"
         style="fill:#000000;fill-opacity:1.0000000;fill-rule:nonzero;stroke:none;stroke-width:1.0000000px;stroke-linecap:butt;stroke-linejoin:miter;stroke-opacity:1.0000000" />
      <path
         d="M 60.686066,38.852811 C 110.33042,1.2810336 129.70007,74.444258 143.25713,120.02821 C 157.26379,160.82885 161.77378,206.86418 186.67146,243.07490 L 154.86825,261.88876 C 130.65301,224.44954 126.48231,178.35836 112.42262,136.82677 C 103.32974,108.25442 91.865564,82.460380 73.905116,58.298101 C 73.460305,57.699695 58.958294,38.893205 59.334109,38.589230 C 69.219520,30.593501 80.367432,24.298971 90.884094,17.153842 C 91.333594,17.379732 91.783094,17.605622 92.232594,17.831512 L 60.686066,38.852811 z "
         id="path4375"
         style="fill:#000000;fill-opacity:1.0000000;fill-rule:nonzero;stroke:none;stroke-width:1.0000000px;stroke-linecap:butt;stroke-linejoin:miter;stroke-opacity:1.0000000" />
    </g>
    <path
       d="M 500.63901,358.30460 C 485.59207,351.29319 468.34021,349.79551 451.84834,348.67830 C 390.36770,365.88204 472.01155,302.38380 434.55936,357.67862 C 423.71799,373.39663 415.55422,388.23736 417.98149,407.43801 C 426.37197,423.94207 437.31745,439.61711 449.92066,453.13718 C 468.37672,469.58312 488.82182,471.57254 510.24694,461.32994 C 582.12975,408.82683 498.07797,512.58480 532.42490,435.79633 C 537.68181,411.39550 544.65589,381.50781 527.83959,360.54522 C 519.06826,352.04618 508.89502,349.83873 497.20111,348.59175 L 527.11619,326.84876 C 539.56610,328.63070 550.56023,331.79146 559.43879,341.38276 C 577.26650,364.08831 570.76325,393.91606 565.74342,420.58113 C 551.92538,456.82004 513.67342,466.90272 481.89767,484.63724 C 459.12698,494.42992 436.89379,489.26814 418.27718,472.64877 C 405.38830,458.38161 394.06073,442.17875 385.08319,425.14144 C 381.66427,404.69667 388.77948,389.02061 400.61968,372.15683 C 418.39204,344.73883 447.78974,322.88368 481.81506,326.76937 C 499.18214,328.32678 517.54244,329.75531 532.96318,338.37973 L 500.63901,358.30460 z "
       id="path4377"
       style="stroke-opacity:1.0000000;stroke-linejoin:miter;stroke-linecap:butt;stroke-width:1.0000000px;stroke:none;fill-rule:nonzero;fill-opacity:1.0000000;fill:#ff0000" />
    <path
       d="M 801.54618,25.727510 C 786.00927,25.836559 770.76656,28.172812 756.36631,33.824961 C 809.74496,-5.8709869 739.87489,60.479872 725.66244,100.34817 C 712.71902,134.39250 731.14777,157.18730 754.54480,181.21528 C 750.47012,192.13495 799.18077,180.88470 789.07794,186.69633 C 733.16319,218.86118 784.46886,185.31076 797.45590,173.03585 C 817.22799,151.56696 837.10493,122.65155 836.16465,92.259929 C 825.75599,72.471693 809.98943,54.992663 796.02888,37.260146 C 795.08294,36.289410 794.13700,35.318675 793.19106,34.347939 L 824.87510,14.976941 C 825.84792,16.056764 826.82073,17.136587 827.79355,18.216410 C 841.94814,36.727722 858.09883,54.492030 869.16696,74.746420 C 871.57399,106.23915 850.59033,136.90053 830.86192,159.74603 C 804.07051,187.11309 759.71699,233.53570 723.59621,200.29800 C 700.11775,174.62755 678.80342,151.33993 692.62273,115.48065 C 710.13291,66.847494 737.81541,33.111988 785.16887,10.252513 C 800.37517,5.6897097 816.11157,3.4095389 832.05601,3.0689112 L 801.54618,25.727510 z "
       id="path4391"
       style="stroke-opacity:1.0000000;stroke-linejoin:miter;stroke-linecap:butt;stroke-width:1.0000000px;stroke:none;fill-rule:nonzero;fill-opacity:1.0000000;fill:#ff0000" />
    <path
       d="M 759.59911,661.99857 C 745.69121,657.63367 732.74535,656.24377 719.65755,662.74349 C 771.16348,626.29675 715.03432,685.39415 705.34865,710.58124 C 697.15040,735.96809 701.77161,759.72783 715.89721,781.58532 C 733.56137,805.44827 757.31140,816.76086 785.80405,808.84616 C 789.72821,800.48432 798.21775,818.07126 830.11005,763.70553 C 840.94246,741.48385 834.24994,721.96666 820.68508,703.15024 C 805.61767,684.25396 790.76169,670.16692 767.39029,664.36206 C 761.49116,662.94205 756.42063,659.44433 751.15947,656.56909 L 781.69016,636.36001 C 786.93252,638.86218 791.89989,642.07656 797.73406,643.11376 C 821.77825,649.18241 836.43738,665.61094 852.51062,684.06190 C 867.21901,703.69527 873.90999,725.44249 863.78734,748.97140 C 840.86072,790.17598 799.73051,813.44769 757.04747,831.64964 C 726.98211,838.38363 702.97958,824.49590 684.56723,800.22936 C 668.92299,777.75777 664.77879,752.74656 671.53840,725.94245 C 686.75304,687.34327 710.45007,658.27956 748.30703,638.86340 C 762.80868,634.51148 778.01352,635.54564 791.92329,642.07370 L 759.59911,661.99857 z "
       id="path4393"
       style="fill:#ff0000;fill-opacity:1.0000000;fill-rule:nonzero;stroke:none;stroke-width:1.0000000px;stroke-linecap:butt;stroke-linejoin:miter;stroke-opacity:1.0000000" />
    <g
       id="g7451">
      <path
         d="M 365.56465,821.09180 C 389.31896,774.16405 418.11056,729.78337 446.52851,685.46402 C 463.53909,660.26092 484.59186,638.01169 505.54968,616.07454 L 539.37716,602.50936 C 518.19144,624.34881 497.32445,646.83061 479.40780,671.44013 C 451.19145,715.23260 419.38472,758.09272 400.83316,807.02109 L 365.56465,821.09180 z "
         id="path4397"
         style="fill:#000000;fill-opacity:1.0000000;fill-rule:nonzero;stroke:none;stroke-width:1.0000000px;stroke-linecap:butt;stroke-linejoin:miter;stroke-opacity:1.0000000" />
      <path
         d="M 376.94140,635.13253 C 423.93015,689.72788 463.83334,749.78542 511.95390,803.47894 C 523.22194,815.12455 533.30519,827.64153 542.96865,840.61125 L 511.91873,859.05720 C 502.45990,846.17185 492.51139,833.67752 481.85932,821.74979 C 433.80322,766.64253 395.77747,703.22030 343.05860,652.17380 L 376.94140,635.13253 z "
         id="path4399"
         style="fill:#000000;fill-opacity:1.0000000;fill-rule:nonzero;stroke:none;stroke-width:1.0000000px;stroke-linecap:butt;stroke-linejoin:miter;stroke-opacity:1.0000000" />
    </g>
    <g
       id="g7447">
      <path
         d="M 369.59027,204.85145 C 300.73857,244.37938 357.23905,211.95754 372.50371,203.12882 C 382.47120,197.36387 352.59121,214.69880 342.56016,220.35242 C 324.15898,230.72352 375.09450,193.38783 390.81497,179.28003 C 412.21671,160.07377 434.52592,141.87175 458.39927,125.84328 C 462.68713,121.60654 553.20065,71.673485 550.99674,72.984465 C 544.67656,76.743979 538.23481,80.295250 531.85384,83.950642 L 564.97623,71.822483 C 512.02464,102.34693 497.51822,109.67805 490.46156,113.86344 C 437.85397,148.24862 398.89180,197.09526 343.55374,227.16710 C 333.26311,232.75925 384.14601,203.78082 373.94569,209.53606 C 362.67693,215.89414 351.54737,222.49584 340.34822,228.97573 L 369.59027,204.85145 z "
         id="path4401"
         style="fill:#000000;fill-opacity:1.0000000;fill-rule:nonzero;stroke:none;stroke-width:1.0000000px;stroke-linecap:butt;stroke-linejoin:miter;stroke-opacity:1.0000000" />
      <path
         d="M 375.59668,17.354625 C 422.37294,71.932544 470.99397,124.89129 519.09312,178.30755 C 538.21993,199.48918 528.94022,188.74109 546.94556,210.54034 L 518.35450,227.74640 C 500.53853,206.01313 509.66053,216.80424 490.97720,195.38259 C 444.72504,142.36162 394.60158,87.668669 345.08685,40.013225 L 375.59668,17.354625 z "
         id="path4403"
         style="fill:#000000;fill-opacity:1.0000000;fill-rule:nonzero;stroke:none;stroke-width:1.0000000px;stroke-linecap:butt;stroke-linejoin:miter;stroke-opacity:1.0000000" />
    </g>
    <g
       id="g7465">
      <path
         d="M 37.887366,845.90864 C 50.770981,815.42321 68.688470,790.45716 91.597414,766.98339 C 132.43876,725.96299 157.38271,673.45215 181.26373,621.52854 C 183.23559,616.76050 185.85150,612.31420 188.14539,607.70703 L 221.58475,593.13319 C 219.06782,597.75593 216.14878,602.15885 214.03396,607.00140 C 188.87276,658.47559 165.39897,711.86129 125.00864,753.61394 C 102.58238,776.33267 84.233165,800.33249 72.051113,830.21519 L 37.887366,845.90864 z "
         id="path4405"
         style="fill:#000000;fill-opacity:1.0000000;fill-rule:nonzero;stroke:none;stroke-width:1.0000000px;stroke-linecap:butt;stroke-linejoin:miter;stroke-opacity:1.0000000" />
      <path
         d="M 102.21814,596.20611 C 131.27831,627.41527 155.52816,662.85210 178.45507,698.74869 C 193.24522,724.46381 204.70251,751.86798 213.94796,779.99933 C 216.54121,788.44999 218.64239,797.03527 220.75383,805.59311 L 187.83460,822.95856 C 185.81527,814.50349 183.80402,806.03058 181.24022,797.70553 C 172.42453,769.84055 162.22361,742.16163 147.36583,716.87670 C 125.00516,680.96624 101.82361,644.32185 69.893962,616.13098 L 102.21814,596.20611 z "
         id="path4407"
         style="fill:#000000;fill-opacity:1.0000000;fill-rule:nonzero;stroke:none;stroke-width:1.0000000px;stroke-linecap:butt;stroke-linejoin:miter;stroke-opacity:1.0000000" />
    </g>
    <path
       d="M 823.49615,361.16174 C 809.50112,358.36552 796.19768,356.40995 782.10535,359.45399 C 782.91886,357.68852 771.25650,364.96095 773.95125,363.55017 C 829.06613,334.69605 744.62881,397.45251 727.16356,417.71023 C 705.73857,441.65233 707.00420,463.57774 726.76156,488.04568 C 723.92939,512.09307 795.97321,482.58668 787.80230,487.28060 C 761.38493,502.45654 755.64745,505.98570 771.62513,496.36221 C 802.78767,474.63983 847.89064,455.40961 834.10868,412.17314 C 822.04694,393.48861 815.25899,371.96236 804.54486,352.73150 C 805.12484,351.95478 800.47848,348.03834 800.28490,347.81493 L 831.99855,328.21426 C 833.60220,330.12928 835.80488,331.54653 836.80950,333.95934 C 847.75622,353.42484 853.49895,375.77306 866.20792,394.53287 C 881.07570,440.59204 839.86563,460.22447 805.42952,483.87790 C 772.96901,504.19128 730.98067,538.70169 695.21743,507.12025 C 675.28676,481.42781 670.79932,457.05129 693.64512,431.52292 C 724.81809,392.99121 766.77368,357.01671 811.40185,336.45323 C 826.29625,334.71719 841.76339,335.83529 855.82032,341.23687 L 823.49615,361.16174 z "
       id="path4409"
       style="fill:#ff0000;fill-opacity:1.0000000;fill-rule:nonzero;stroke:none;stroke-width:1.0000000px;stroke-linecap:butt;stroke-linejoin:miter;stroke-opacity:1.0000000" />
    <path
       d="M 767.94500,867.72450 C 756.83119,834.73719 747.14365,801.12758 738.04208,767.49994 C 721.79538,706.35455 707.25279,644.21894 700.14164,581.25518 C 696.93804,557.59022 697.61654,533.71859 697.55434,509.91112 C 696.78319,494.32182 699.05439,478.89755 699.41908,463.33597 C 700.61332,445.59651 702.91931,427.95560 703.45851,410.17765 C 704.19987,389.05510 707.30309,368.21200 707.60480,347.01772 C 706.62134,326.01242 709.21406,305.31806 712.27045,284.60302 C 713.03380,251.99970 722.63653,221.19984 728.30850,189.44381 C 731.41571,165.41391 734.89015,141.52795 741.69834,118.24460 C 747.66853,97.147363 755.76875,77.474555 769.09553,60.071944 C 769.96958,58.940435 770.84362,57.808925 771.71767,56.677415 L 795.70058,46.727585 C 794.81689,47.854856 793.93320,48.982127 793.04952,50.109397 C 779.76246,67.298453 770.66296,86.447238 764.87893,107.48892 C 757.97340,130.66440 754.92183,154.71935 751.08050,178.53665 C 745.49480,210.22086 735.71988,240.89861 735.44527,273.47823 C 732.26215,293.97013 730.12628,314.59005 730.83895,335.36730 C 730.51220,356.54344 727.37043,377.37474 726.81315,398.48884 C 726.53847,416.27442 723.79265,433.85002 722.82238,451.60391 C 722.67501,467.23245 720.30573,482.65243 720.66532,498.29097 C 720.55382,522.08660 720.32740,545.93382 722.60605,569.64951 C 727.99922,632.85578 741.57364,695.38463 758.44974,756.44621 C 768.23519,789.41496 778.75542,822.53331 791.24720,854.47509 L 767.94500,867.72450 z "
       id="path7471"
       style="fill:#dfff00;fill-opacity:1.0000000;fill-rule:nonzero;stroke:none;stroke-width:1.0000000px;stroke-linecap:butt;stroke-linejoin:miter;stroke-opacity:1.0000000" />
  </g>
</svg>
